<?xml version="1.0" encoding="UTF-8"?>
<svg xmlns="http://www.w3.org/2000/svg" xmlns:xlink="http://www.w3.org/1999/xlink" viewBox="0 0 1080 1080">
  <defs>
    <style>
      .cls-1 {
        fill: url(#linear-gradient);
      }

      .cls-1, .cls-2, .cls-3, .cls-4, .cls-5, .cls-6, .cls-7, .cls-8 {
        stroke-width: 0px;
      }

      .cls-2 {
        fill: #cc9;
      }

      .cls-3, .cls-8 {
        fill: #fcee21;
      }

      .cls-9 {
        isolation: isolate;
      }

      .cls-4, .cls-8 {
        opacity: .3;
      }

      .cls-5 {
        fill: #1a2e35;
      }

      .cls-6 {
        fill: #fff;
        opacity: .1;
      }

      .cls-7, .cls-10 {
        opacity: .5;
      }

      .cls-10 {
        mix-blend-mode: screen;
      }
    </style>
    <linearGradient id="linear-gradient" x1="117.96" y1="426.01" x2="223.38" y2="426.01" gradientUnits="userSpaceOnUse">
      <stop offset="0" stop-color="#d9e021"/>
      <stop offset="1" stop-color="#000"/>
    </linearGradient>
  </defs>
  <g class="cls-9">
    <g id="Layer_1" data-name="Layer 1">
      <g>
        <path class="cls-3" d="m101.77,379.27c-9.23-.94-19.06-.7-27.39,3.86-8.69,4.76-14.65,14.05-17.77,23.24-1.61,4.76-2.49,9.79-2.57,14.81-.09,5.66,1.07,11.18,2.3,16.67,1.2,5.35,2.38,10.77,2.14,16.29-.11,2.46-.51,5.01-1.62,7.23-1.06,2.12-2.92,3.3-4.87,4.51-2.42,1.5-4.51,3.37-6.76,5.1-2.32,1.79-4.72,3.47-7.22,5.01-5.08,3.14-10.5,5.61-16.25,7.23-1.66.47-.96,3.06.71,2.59,10.19-2.88,19.23-8.38,27.34-15.09,1.8-1.49,3.82-2.58,5.71-3.94,1.96-1.41,3.31-3.08,4.22-5.32,1.86-4.61,1.67-9.88,1.03-14.73-.76-5.79-2.43-11.4-3.39-17.15-.86-5.15-.89-10.41.03-15.56,1.73-9.68,6.6-19.65,14.34-25.94,8.4-6.82,19.74-7.2,30.02-6.15,1.72.18,1.71-2.51,0-2.69h0Z"/>
        <path class="cls-3" d="m57.66,469.12c3.28.34,6.22-2.04,6.56-5.32.34-3.28-2.04-6.22-5.32-6.56-3.28-.34-6.21,2.04-6.56,5.32s2.04,6.21,5.32,6.56Z"/>
        <path class="cls-3" d="m58.11,466.45c.34,13.95-3.91,27.76-12,39.13-1,1.41,1.32,2.76,2.32,1.36,8.34-11.72,12.72-26.1,12.37-40.49-.04-1.73-2.73-1.73-2.69,0h0Z"/>
        <path class="cls-3" d="m57.26,464.47c-1.2,14.4-9.05,28.04-20.89,36.31-1.41.98-.07,3.31,1.36,2.32,9.82-6.86,17.08-17.08,20.4-28.59.94-3.28,1.54-6.64,1.82-10.04.14-1.72-2.54-1.71-2.69,0h0Z"/>
        <path class="cls-3" d="m55.39,464.39c-7.16,11.98-16.12,26.48-31.4,28.29-1.7.2-1.72,2.89,0,2.69,16.42-1.95,25.95-16.64,33.72-29.62.89-1.49-1.43-2.84-2.32-1.36h0Z"/>
        <path class="cls-3" d="m55.97,465.44c-2.67,12.14-10.31,22.96-20.74,29.71-2.98,1.93-6.16,3.52-9.5,4.71-1.62.58-.92,3.17.71,2.59,12.4-4.42,22.81-13.89,28.48-25.76,1.61-3.36,2.84-6.89,3.64-10.53.37-1.69-2.22-2.41-2.59-.71h0Z"/>
        <path class="cls-3" d="m55.97,468.19c2.06,7.36.24,15.21-3.49,21.73-3.82,6.67-9.44,12.06-15.24,17.01-1.32,1.12.59,3.02,1.9,1.9,6.16-5.25,12.11-11.05,16.03-18.21,3.82-7,5.57-15.34,3.39-23.14-.46-1.66-3.06-.96-2.59.71h0Z"/>
        <path class="cls-3" d="m55.31,464.37c-7.72,10.13-18.2,18.17-29.98,23.01-1.58.65-.89,3.25.71,2.59,12.5-5.14,23.39-13.5,31.59-24.24,1.05-1.37-1.28-2.72-2.32-1.36h0Z"/>
        <path class="cls-8" d="m57.66,469.12c3.28.34,6.22-2.04,6.56-5.32.34-3.28-2.04-6.22-5.32-6.56-3.28-.34-6.21,2.04-6.56,5.32s2.04,6.21,5.32,6.56Z"/>
      </g>
      <polyline class="cls-5" points="22.12 444.02 19.1 437.21 77.14 331.55 196.61 338.44 198.81 344.36 23.33 444.02"/>
      <polyline class="cls-6" points="22.12 444.02 19.1 437.21 77.14 331.55 196.61 338.44 198.81 344.36 23.33 444.02"/>
      <polygon class="cls-5" points="20.61 444.02 80.41 338.44 197.3 344.36 140.2 449.95 20.61 444.02"/>
      <polygon class="cls-4" points="20.61 444.02 80.41 338.44 197.3 344.36 140.2 449.95 20.61 444.02"/>
      <ellipse class="cls-5" cx="112.9" cy="402.83" rx="59.59" ry="26.82" transform="translate(-205.71 131.71) rotate(-33.95)"/>
      <polygon class="cls-5" points="61.94 432.99 82.8 465.86 184.23 401.41 160.66 367.56 61.94 432.99"/>
      <path class="cls-1" d="m119.17,411.22c24.91-16.77,52.45-20.55,63.36-12.43,0,0-3.41-4.78-4.21-5.97-8.27-12.29-36.27-7.11-63.83,11.44-27.56,18.55-43.46,43.79-35.19,56.07.8,1.18,3.5,5.51,3.5,5.51-3.42-13.16,11.47-37.87,36.37-54.63Z"/>
      <ellipse class="cls-5" cx="133.34" cy="433.33" rx="60.15" ry="26.82" transform="translate(-219.26 148.32) rotate(-33.95)"/>
      <path class="cls-2" d="m163.13,585.85c-36.25,0-64.25-19-64.75-52h37.5c1,14,10.25,23.25,26.5,23.25s26.25-8.75,26.25-21.25c0-37.75-90-15-89.75-78.25,0-31.5,25.5-50.5,61.5-50.5s60.25,18.25,62.5,49.75h-38.5c-.75-11.5-10-20.5-25-20.75-13.75-.5-24,6.25-24,20.5,0,35,89.5,15.5,89.5,77,0,27.5-22,52.25-61.75,52.25Z"/>
      <path class="cls-7" d="m99.97,469.27c-4.42,0-10.26-.83-12.92-4.78-2.94-4.37-1.44-11.96,4.1-20.83,6.28-10.04,16.8-20.33,29.64-28.97,16.09-10.83,33.26-17.3,45.92-17.3,4.42,0,10.26.83,12.92,4.78,2.94,4.37,1.44,11.96-4.1,20.83-6.28,10.04-16.8,20.33-29.64,28.97-16.1,10.83-33.26,17.3-45.92,17.3Z"/>
      <path class="cls-6" d="m153.87,367.56c-1.03-1.14-23.09-4.2-47.47,12.6,0,0-1.28,25.11,28.22,17.23,14.17-3.78,22.77-6.15,27.89-7.58,4.01-1.12,5.61-5.9,3.15-9.25-4.67-6.36-11.8-13-11.8-13Z"/>
      <path class="cls-6" d="m97.71,440.76c0-.98-25.84,27.82,7.19,25.68l15.04-3.27s-22.24-6.39-22.24-22.41Z"/>
      <path class="cls-2" d="m254.62,396.55h35v105.25l46.5-58.75h45.5l-61,69.5,61.5,69h-45.5l-47-59v59h-35v-185Z"/>
      <path class="cls-2" d="m396.87,406.05c0-11.5,9-20.5,21.5-20.5s21.5,9,21.5,20.5-9.25,20.5-21.5,20.5-21.5-9-21.5-20.5Zm3.75,37h35v138.5h-35v-138.5Z"/>
      <path class="cls-2" d="m470.12,396.55h35v185h-35v-185Z"/>
      <path class="cls-2" d="m539.62,396.55h35v185h-35v-185Z"/>
      <path class="cls-2" d="m716.12,548.3h-69.5l-11.5,33.25h-36.75l62.75-174.75h40.75l62.75,174.75h-37l-11.5-33.25Zm-34.75-101l-25.25,73h50.5l-25.25-73Z"/>
      <rect class="cls-2" x="788.11" y="443.05" width="35" height="138.5"/>
      <path class="cls-2" d="m912.11,440.8c18.25,0,35.75,8.5,45.25,21.5v-65.75h35.5v185h-35.5v-20.5c-8.25,12.75-23.75,22.75-45.5,22.75-35.25,0-63.25-28.75-63.25-72s28-71,63.5-71Zm8.75,30.75c-18.75,0-36.5,14-36.5,40.25s17.75,41.25,36.5,41.25,36.75-14.5,36.75-40.75-17.5-40.75-36.75-40.75Z"/>
      <g>
        <g>
          <path class="cls-2" d="m792.15,321.42c13.52-8.45,38.22,1.57,38.22,24.7,0,12.97-8.77,22.17-8.72,41.13,1.63-12.93,13.34-27.26,13.34-41.13,0-26.22-28.34-36.64-42.83-24.7Z"/>
          <path class="cls-2" d="m818.67,396.96c0,.54.44,1,1,1h4.6c-.1.82-.2,1.64-.26,2.49h-4.34c-.56,0-1,.44-1,1s.44,1,1,1h4.18c-.06.8-.1,1.63-.14,2.49h-4.05c-.56,0-1,.44-1,1s.44,1,1,1h3.98c-.04,1.1-.06,2.25-.06,3.43,0,2.19-2.75,3.23-7.75,3.23s-2.57,3.29-10.14,3.29-5.02-3.29-10.16-3.29-7.73-1.03-7.73-3.23c0-1.18,0-2.33-.02-3.43h3.92c.56,0,1-.44,1-1s-.44-1-1-1h-3.97c-.02-.86-.04-1.69-.08-2.49h4.05c.56,0,1-.46,1-1s-.44-1-1-1h-4.15c-.04-.85-.1-1.67-.18-2.49h4.32c.56,0,1-.46,1-1s-.44-1-1-1h-4.52c-.2-1.77-.44-3.47-.78-5.14,2.61.92,8.15,1.54,10.12,3.53,2.27,2.31.08,7.97,2.39,10.24,1.65,1.63,13.15,1.63,14.8,0,2.29-2.27.1-7.93,2.39-10.24,1.97-1.99,6.67-2.61,9.26-3.53-.34,1.67-.64,3.37-.88,5.14h-4.84c-.56,0-1,.44-1,1Z"/>
          <path class="cls-2" d="m855.38,334.04c-.92-5.16,1.95-10.14,6.61-12.03-2.37-6.43-5.84-12.35-10.14-17.53-3.99,3.05-9.7,3.05-13.73-.32-4.01-3.37-5.02-9.01-2.69-13.47-5.8-3.31-12.22-5.7-19.03-6.93-1.1,4.92-5.46,8.61-10.72,8.61s-9.62-3.69-10.72-8.61c-6.81,1.24-13.23,3.63-19.03,6.93,2.35,4.46,1.35,10.1-2.67,13.47-4.02,3.37-9.74,3.37-13.75.32-4.3,5.18-7.75,11.1-10.12,17.53,4.66,1.91,7.53,6.87,6.61,12.03-.92,5.16-5.28,8.82-10.32,9.05.04,7.01,1.27,13.73,3.51,19.96,4.8-1.53,10.18.44,12.79,4.98,2.63,4.54,1.65,10.18-2.07,13.57,4.38,5.16,9.62,9.58,15.52,13.03,2.09-3.33,7.09-5.26,10.98-5.06-3.45-17.19-16.42-23.09-16.42-43.14,0-16.18,10.8-29.86,25.58-34.23,3.19-1.04,6.58-1.61,10.1-1.61s6.86.56,10.01,1.59c14.86,4.31,25.7,18.01,25.7,34.25,0,20.05-11.85,24.99-16,43.14,3.89-.2,8.45,1.73,10.56,5.06,5.9-3.45,11.14-7.87,15.52-13.03-3.73-3.39-4.7-9.05-2.09-13.57,2.63-4.54,8.03-6.52,12.81-4.98,2.23-6.24,3.47-12.95,3.51-19.94-5.04-.22-9.4-3.91-10.32-9.07Zm5.04,24.8l-.22.76-.78-.04c-5.14-.2-10.04,2.51-12.63,6.97-2.55,4.4-2.44,10.06.28,14.4l.42.66-.54.56c-2.93,3.07-6.19,5.8-9.72,8.15-.18.12-.36.18-.55.18-.32,0-.64-.16-.82-.46-.32-.46-.2-1.08.28-1.38,3.19-2.13,6.16-4.58,8.85-7.33-2.75-4.92-2.73-10.9.1-15.8,2.83-4.86,8.03-7.89,13.65-7.95.94-3.43,1.55-6.95,1.83-10.52-5.28-1.99-9.1-6.57-10.08-12.13-.99-5.58,1.06-11.2,5.32-14.89-1.48-3.23-3.27-6.33-5.34-9.23-5.24,1.83-11.28.72-15.52-2.83-4.34-3.65-6.4-9.24-5.5-14.82-3.21-1.54-6.56-2.75-10-3.65-2.83,4.84-8.03,7.83-13.75,7.83s-10.82-2.99-13.71-7.83c-3.44.88-6.81,2.11-10.02,3.65.9,5.58-1.15,11.2-5.48,14.82-4.27,3.57-10.32,4.66-15.54,2.83-2.09,2.89-3.88,6-5.34,9.23,4.28,3.69,6.31,9.31,5.32,14.86-1,5.62-4.82,10.22-10.06,12.17.26,3.55.87,7.07,1.83,10.48,5.62.08,10.84,3.13,13.63,7.99,2.95,5.12,2.83,11.42-.32,16.46-.28.46-.9.6-1.36.32-.48-.3-.62-.91-.32-1.38,2.71-4.34,2.81-10,.26-14.4-2.55-4.46-7.51-7.21-12.61-6.97l-.78.02-.22-.74c-1.17-4.03-1.91-8.21-2.17-12.41l-.04-.78.74-.22c4.92-1.57,8.55-5.74,9.47-10.88.88-5.02-1.16-10.28-5.2-13.45l-.62-.48.32-.7c1.67-3.84,3.8-7.53,6.3-10.92l.46-.62.72.28c4.76,1.93,10.34,1.04,14.26-2.23,3.89-3.27,5.72-8.63,4.66-13.65l-.16-.76.68-.34c3.77-1.87,7.75-3.33,11.85-4.3l.74-.2.38.7c2.41,4.52,7.25,7.45,12.33,7.45s9.98-2.85,12.37-7.45l.36-.68.76.18c4.09.98,8.05,2.43,11.83,4.3l.68.34-.16.76c-1.06,5.02.78,10.38,4.68,13.65,3.89,3.27,9.48,4.16,14.25,2.23l.7-.28.48.62c2.49,3.39,4.62,7.05,6.3,10.9l.32.72-.62.48c-4.05,3.15-6.08,8.43-5.2,13.47.9,5,4.6,9.26,9.49,10.84l.74.24-.06.78c-.26,4.22-1,8.39-2.17,12.41Z"/>
        </g>
        <g class="cls-10">
          <path class="cls-2" d="m831.16,342.34c.8-.47,1.6-.94,2.4-1.41-1.23-7.75-5.05-12.88-8.36-15.97-5.06-4.73-11.86-7.44-18.64-7.44-.33,0-.65,0-.98.02,12.07,1.08,23.84,10.11,25.58,24.8Z"/>
          <g>
            <path class="cls-2" d="m746.72,344.02c.13,6.09,1.18,12.07,3.12,17.79.87-.2,1.76-.3,2.65-.3,4.27,0,8.25,2.3,10.37,6,1.17,2.02,1.69,4.29,1.59,6.52.31-.13.63-.27.94-.4.02-2.29-.54-4.58-1.71-6.59-2.24-3.93-6.61-6.47-11.11-6.47-.19,0-.38,0-.59.01l-1.55.04-.45-1.49c-1.2-4.13-1.95-8.38-2.21-12.65l-.08-1.58,1.48-.44c4.56-1.46,7.92-5.32,8.77-10.08.81-4.64-1.08-9.54-4.82-12.46l-1.26-.97.65-1.42c1.69-3.9,3.85-7.64,6.41-11.12l.92-1.24,1.45.57c1.53.62,3.15.93,4.83.93,3.09,0,6.07-1.07,8.39-3,3.61-3.03,5.3-8,4.32-12.66l-.32-1.53,1.39-.69c3.86-1.92,7.92-3.39,12.04-4.37l1.51-.41.77,1.41c2.24,4.2,6.72,6.91,11.43,6.91s9.26-2.64,11.47-6.91l.73-1.37,1.52.36c4.1.98,8.15,2.45,12.05,4.38l1.38.69-.32,1.53c-.98,4.66.72,9.63,4.34,12.66,2.3,1.94,5.28,3,8.37,3,1.68,0,3.31-.31,4.84-.93l1.41-.57.97,1.25c2.57,3.49,4.72,7.22,6.41,11.09l.64,1.45-1.25.96c-1.81,1.41-3.18,3.28-4.03,5.36.12-.08.23-.17.35-.25.47-.38.93-.77,1.4-1.16,1.13-1.84,2.74-3.38,4.73-4.39-2.18-5.62-5.22-10.87-9.04-15.63-1.92,1.22-4.18,1.89-6.48,1.89-2.81,0-5.55-1-7.72-2.81-4.02-3.38-5.35-9.06-3.36-13.82-5.33-2.93-11.03-5.01-16.96-6.18-1.55,5.02-6.13,8.45-11.46,8.45s-9.91-3.5-11.46-8.45c-5.93,1.17-11.63,3.25-16.96,6.18,2.02,4.77.69,10.45-3.34,13.83-2.16,1.81-4.9,2.8-7.72,2.8-2.3,0-4.57-.67-6.49-1.89-3.81,4.73-6.84,9.98-9.02,15.63,4.62,2.36,7.25,7.57,6.33,12.74-.93,5.25-5.09,9.15-10.29,9.8Z"/>
            <path class="cls-2" d="m854.55,319.78c-1.29-2.72-2.8-5.33-4.5-7.77-1.54.46-3.15.69-4.79.69-4.05,0-7.95-1.4-10.99-3.94-4.43-3.72-6.62-9.28-5.96-15-2.68-1.24-5.51-2.27-8.42-3.07-3.09,4.75-8.46,7.67-14.22,7.67s-11.04-2.92-14.17-7.67c-2.86.77-5.7,1.8-8.44,3.07.65,5.66-1.59,11.35-5.94,15-3.04,2.54-6.95,3.94-11,3.94-1.65,0-3.26-.23-4.8-.69-1.71,2.44-3.22,5.05-4.5,7.77,4.15,3.91,6.09,9.7,5.08,15.3-1,5.66-4.8,10.45-9.99,12.66.26,2.98.78,5.94,1.54,8.82,5.69.34,10.9,3.54,13.73,8.47,1.25,2.16,1.97,4.53,2.19,6.92,2.15-.91,4.29-1.82,6.44-2.74-3.6-6.05-6.84-12.72-6.84-22.79,0-16.15,10.82-30.63,26.29-35.2,3.4-1.1,6.9-1.66,10.41-1.66s7.01.55,10.29,1.63c12.24,3.55,21.58,13.27,25.01,25.16,2.8-1.79,5.56-3.63,8.29-5.53.33-4.15,2.2-8.13,5.29-11.06Z"/>
          </g>
        </g>
      </g>
    </g>
  </g>
</svg>